<svg width="25" height="23" viewBox="0 0 25 23" fill="none" xmlns="http://www.w3.org/2000/svg">
<path d="M18.5562 4H6.11176C5.12954 4 4.33398 4.74583 4.33398 5.66667V17.3333C4.33398 18.2542 5.12954 19 6.11176 19H18.5562C19.5384 19 20.334 18.2542 20.334 17.3333V5.66667C20.334 4.74583 19.5384 4 18.5562 4ZM9.66732 15.6667H7.42465V9.83333H9.66732V15.6667ZM8.50643 8.76417C7.8211 8.76417 7.36332 8.33583 7.36332 7.76417C7.36332 7.1925 7.82021 6.76417 8.58198 6.76417C9.26732 6.76417 9.7251 7.1925 9.7251 7.76417C9.7251 8.33583 9.26821 8.76417 8.50643 8.76417ZM17.6673 15.6667H15.4967V12.4783C15.4967 11.5967 14.918 11.3933 14.7011 11.3933C14.4842 11.3933 13.7607 11.5292 13.7607 12.4783C13.7607 12.6142 13.7607 15.6667 13.7607 15.6667H11.518V9.83333H13.7607V10.6475C14.0495 10.1725 14.6282 9.83333 15.7135 9.83333C16.7989 9.83333 17.6673 10.6475 17.6673 12.4783V15.6667Z" fill="black"/>
</svg>
